<svg width="20" height="17" viewBox="0 0 20 17" fill="none" xmlns="http://www.w3.org/2000/svg">
<path d="M19.334 8.32019C19.334 8.76317 19.0048 9.12926 18.5777 9.1872L18.459 9.19519L0.958982 9.19519C0.475735 9.19519 0.0839825 8.80344 0.0839825 8.32019C0.0839825 7.87721 0.413162 7.51112 0.840252 7.45318L0.958982 7.44519L18.459 7.44519C18.9422 7.44519 19.334 7.83694 19.334 8.32019Z" fill="#212121"/>
<path d="M8.63399 14.7285C8.97643 15.0695 8.97762 15.6235 8.63665 15.9659C8.32668 16.2772 7.84063 16.3065 7.49754 16.0531L7.39922 15.9686L0.340883 8.9406C0.0286398 8.6297 0.000235558 8.1419 0.255682 7.79881L0.340832 7.70055L7.39917 0.671384C7.74158 0.330383 8.2956 0.33153 8.6366 0.673946C8.9466 0.985233 8.97383 1.4714 8.71896 1.81342L8.63404 1.91138L2.19867 8.3209L8.63399 14.7285Z" fill="#212121"/>
</svg>
