<svg width="18" height="15" viewBox="0 0 18 15" fill="none" xmlns="http://www.w3.org/2000/svg">
<path fill-rule="evenodd" clip-rule="evenodd" d="M7.16972 10.0437C7.69011 10.3965 8.32434 10.6098 8.99923 10.6098C10.7881 10.6098 12.2436 9.14122 12.2436 7.33629C12.2436 6.65534 12.0321 6.01541 11.6825 5.49033L10.7962 6.3846C10.9426 6.66354 11.0239 6.99171 11.0239 7.33629C11.0239 8.46027 10.1132 9.37914 8.99923 9.37914C8.65772 9.37914 8.33247 9.2971 8.05601 9.14942L7.16972 10.0437ZM14.3577 2.79114C15.5367 3.8741 16.5368 5.33445 17.2849 7.09016C17.3499 7.24604 17.3499 7.42654 17.2849 7.57421C15.5448 11.6599 12.4468 14.1048 8.99923 14.1048H8.9911C7.42178 14.1048 5.91752 13.5879 4.59214 12.6444L3.0147 14.2361C2.89273 14.3591 2.73824 14.4165 2.58375 14.4165C2.42926 14.4165 2.26663 14.3591 2.1528 14.2361C1.94952 14.0309 1.91699 13.7028 2.07962 13.4649L2.10401 13.432L14.13 1.29797C14.1462 1.28156 14.1625 1.26515 14.1706 1.24874L14.1706 1.24874C14.1869 1.23233 14.2032 1.21593 14.2113 1.19952L14.9756 0.42832C15.2196 0.190397 15.6017 0.190397 15.8375 0.42832C16.0815 0.666243 16.0815 1.06005 15.8375 1.29797L14.3577 2.79114ZM5.74896 7.33949C5.74896 7.5528 5.77336 7.76611 5.80588 7.96301L2.79735 10.9986C1.98424 10.0469 1.27683 8.89829 0.715779 7.57741C0.65073 7.42973 0.65073 7.24924 0.715779 7.09336C2.45585 3.00765 5.55381 0.570992 8.99329 0.570992H9.00142C10.1642 0.570992 11.2944 0.849936 12.3352 1.37501L9.61939 4.11522C9.42424 4.08241 9.21283 4.05779 9.00142 4.05779C7.20444 4.05779 5.74896 5.52635 5.74896 7.33949Z" fill="#212121"/>
</svg>
